<svg width="16" height="18" viewBox="0 0 16 18" fill="none" xmlns="http://www.w3.org/2000/svg">
<g opacity="0.7">
<path d="M3.66667 16.2222C4.86328 16.2222 5.83333 15.2522 5.83333 14.0556C5.83333 12.859 4.86328 11.8889 3.66667 11.8889C2.47005 11.8889 1.5 12.859 1.5 14.0556C1.5 15.2522 2.47005 16.2222 3.66667 16.2222Z" stroke="#CA74FF" stroke-width="2" stroke-linecap="round" stroke-linejoin="round"/>
<path d="M5.83333 14.0558H11.9722C12.6426 14.0558 13.2856 13.7895 13.7596 13.3154C14.2337 12.8414 14.5 12.1984 14.5 11.528C14.5 10.8576 14.2337 10.2147 13.7596 9.74062C13.2856 9.26657 12.6426 9.00025 11.9722 9.00025H4.02778C3.35737 9.00025 2.71442 8.73393 2.24037 8.25988C1.76632 7.78583 1.5 7.14288 1.5 6.47248C1.5 5.80207 1.76632 5.15912 2.24037 4.68507C2.71442 4.21102 3.35737 3.9447 4.02778 3.9447H10.1667" stroke="#CA74FF" stroke-width="2" stroke-linecap="round" stroke-linejoin="round"/>
<path d="M12.3333 6.11116C13.53 6.11116 14.5 5.14111 14.5 3.9445C14.5 2.74788 13.53 1.77783 12.3333 1.77783C11.1367 1.77783 10.1667 2.74788 10.1667 3.9445C10.1667 5.14111 11.1367 6.11116 12.3333 6.11116Z" stroke="#CA74FF" stroke-width="2" stroke-linecap="round" stroke-linejoin="round"/>
</g>
</svg>
